# xmcd
#
# Track frame offsets:
#	150
#	16415
#	30819
#	46935
#	62402
#	79202
#	97017
#	118192
#	135805
#	152695
#	173542
#	196387
#	213217
#	228547
#	239540
#	260560
#	276222
#	294422
#	313680
#	330922
#
# Disc length: 4673 seconds
#
# Revision: 1
# Processed by: cddbd v1.4PL0 Copyright (c) Steve Scherf et al.
# Submitted via: audiograbber 1.81.03
#
DISCID=08123f14
DTITLE=James Blundell - I Shall Be Released - The Best of
DYEAR=2001
DGENRE=Country
TTITLE0=Moment in Time
TTITLE1=The Old Man's Gone
TTITLE2=Age of Grace
TTITLE3=Walk On
TTITLE4=Time on His Hands
TTITLE5=Down on the Farm
TTITLE6=Pride
TTITLE7=Very Good Song
TTITLE8=Mysterious Ways
TTITLE9=Touch of Water
TTITLE10=Rain on a Tin Roof
TTITLE11=Kimberely Moon
TTITLE12=Cloncurry Cattle Song
TTITLE13=Come Back Soon
TTITLE14=Guardian Angels
TTITLE15=The Valley
TTITLE16=Way Out West
TTITLE17=Blue Heeler
TTITLE18=This Road
TTITLE19=I Shall Be Released
EXTD=
EXTT0=
EXTT1=
EXTT2=
EXTT3=
EXTT4=
EXTT5=
EXTT6=
EXTT7=
EXTT8=
EXTT9=
EXTT10=
EXTT11=
EXTT12=
EXTT13=
EXTT14=
EXTT15=
EXTT16=
EXTT17=
EXTT18=
EXTT19=
PLAYORDER=
